<?xml version="1.0" encoding="utf-8"?>
<!-- Generator: Adobe Illustrator 16.0.0, SVG Export Plug-In . SVG Version: 6.00 Build 0)  -->
<!DOCTYPE svg PUBLIC "-//W3C//DTD SVG 1.1//EN" "http://www.w3.org/Graphics/SVG/1.1/DTD/svg11.dtd">
<svg version="1.1" id="Layer_1" xmlns="http://www.w3.org/2000/svg" xmlns:xlink="http://www.w3.org/1999/xlink" x="0px" y="0px"
	 width="480px" height="800px" viewBox="0 0 480 800" enable-background="new 0 0 480 800" xml:space="preserve">
<path fill="#FFFFFF" d="M457.667,564.031l2.54,2.478c1.075,1.05,1.075,2.744,0,3.782l-22.246,21.694c-1.076,1.05-2.817,1.05-3.881,0
	l-22.26-21.694c-1.075-1.048-1.075-2.744,0-3.782l2.543-2.478c1.088-1.061,2.864-1.037,3.928,0.043l13.146,13.45v-32.077
	c0-1.481,1.222-2.675,2.743-2.675h3.669c1.521,0,2.747,1.193,2.747,2.675v32.077l13.144-13.45
	C454.803,562.982,456.577,562.961,457.667,564.031L457.667,564.031z"/>
</svg>
